<svg xmlns="http://www.w3.org/2000/svg" xmlns:xlink="http://www.w3.org/1999/xlink" width="38" height="38">
    <defs>
        <path id="a" d="M0 34.524h197V0H0z"/>
        <path id="c" d="M0 0h41.673v34.096H0z"/>
    </defs>
        <g transform="translate(0 1.32)">
            <mask id="d" fill="#fff">
                <use xlink:href="#c"/>
            </mask>
            <path d="M38.192 0h-5.588c-.765 0-1.5.303-2.04.843l-8.026 8a2.411 2.411 0 0 1-3.403 0l-8.025-8A2.891 2.891 0 0 0 9.069 0H3.48A3.475 3.475 0 0 0 0 3.47v27.157a3.475 3.475 0 0 0 3.48 3.47h11.202a.286.286 0 0 1-.218-.138v-.001l-6.256-10.8a5.994 5.994 0 0 1 2.191-8.206l.425-.244a2.578 2.578 0 0 1 3.75-2.158 2.579 2.579 0 0 1 1.403 2.287c0 .04 0 .08-.003.119a2.574 2.574 0 0 1-2.575 2.451c-.427 0-.83-.104-1.185-.287l-.42.241a3.184 3.184 0 0 0-1.497 1.952 3.212 3.212 0 0 0 .328 2.454l6.255 10.8c.291.503.71.918 1.211 1.2.25.14.515.245.79.316l.056.011.019.002h3.737c.293-.07.576-.18.84-.328.502-.283.92-.698 1.212-1.201L31 21.767c.434-.749.55-1.62.328-2.454a3.184 3.184 0 0 0-1.498-1.952l-.42-.241a2.573 2.573 0 0 1-1.184.287 2.574 2.574 0 0 1-2.452-3.364 2.579 2.579 0 0 1 2.452-1.776 2.578 2.578 0 0 1 2.575 2.44l.425.245a5.994 5.994 0 0 1 2.191 8.206l-6.255 10.8-.001.001a.28.28 0 0 1-.185.132h-.004v.005h11.22a3.475 3.475 0 0 0 3.481-3.47V3.47A3.475 3.475 0 0 0 38.193 0" fill="#E31E26" mask="url(#d)"/>
        </g>
</svg>